<?xml version="1.0" standalone="no"?>
<!DOCTYPE svg PUBLIC "-//W3C//DTD SVG 20010904//EN"
 "http://www.w3.org/TR/2001/REC-SVG-20010904/DTD/svg10.dtd">
<svg version="1.0" xmlns="http://www.w3.org/2000/svg"
 width="128.000000pt" height="128.000000pt" viewBox="0 0 128.000000 128.000000"
 preserveAspectRatio="xMidYMid meet">
<metadata>
Created by potrace 1.14, written by Peter Selinger 2001-2017
</metadata>
<g transform="translate(0.000000,128.000000) scale(0.100000,-0.100000)"
fill="#000000" stroke="none">
<path d="M273 1258 c-116 -39 -220 -147 -258 -268 -11 -35 -13 -115 -12 -365
l2 -320 33 -70 c41 -88 124 -169 208 -205 58 -24 66 -25 362 -28 188 -2 322 1
352 7 124 27 227 110 283 228 l32 68 0 335 0 335 -32 67 c-44 93 -100 151
-191 196 l-76 37 -320 2 c-302 2 -325 1 -383 -19z"/>
</g>
</svg>
